<svg width="47" height="42" viewBox="0 0 47 42" fill="none" xmlns="http://www.w3.org/2000/svg">
<path d="M21.5278 0.5C28.6148 0.5 34.3108 5.92242 34.311 12.5527C34.311 19.1832 28.6149 24.6064 21.5278 24.6064C14.4408 24.6064 8.74463 19.1832 8.74463 12.5527C8.74485 5.92247 14.441 0.500086 21.5278 0.5Z" fill="#272322" fill-opacity="0.6" stroke="white"/>
<ellipse cx="13.2624" cy="12.5753" rx="13.2624" ry="12.5753" transform="matrix(0.986666 0.162758 -0.181635 0.983366 20.8286 12.5508)" fill="#272322" fill-opacity="0.9"/>
<path d="M33.8236 15.2011C40.8029 16.3525 45.4287 22.6189 44.2219 29.1525C43.0151 35.6861 36.4165 40.1009 29.4371 38.9497C22.4576 37.7984 17.831 31.5319 19.0378 24.9982C20.2447 18.4645 26.8442 14.0498 33.8236 15.2011Z" stroke="white" stroke-opacity="0.6"/>
<ellipse cx="13.2834" cy="27.7016" rx="13.2834" ry="12.5531" fill="#272322" fill-opacity="0.3"/>
<path d="M13.2832 15.6484C20.3701 15.6484 26.0662 21.0709 26.0664 27.7012C26.0664 34.3317 20.3703 39.7549 13.2832 39.7549C6.19621 39.7548 0.5 34.3316 0.5 27.7012C0.500221 21.0709 6.19634 15.6485 13.2832 15.6484Z" stroke="white" stroke-opacity="0.8"/>
</svg>